<?xml version="1.0" standalone="no"?>
<!DOCTYPE svg PUBLIC "-//W3C//DTD SVG 1.1//EN"
  "http://www.w3.org/Graphics/SVG/1.1/DTD/svg11.dtd">
<svg version="1.1" xmlns="http://www.w3.org/2000/svg" xmlns:xlink="http://www.w3.org/1999/xlink" width="1144" height="1414" viewBox="160 35 700 925" id="ccdiagram"><filter id="grayscale"><feColorMatrix type="matrix" values="0.3333 0.3333 0.3333 0 0 0.3333 0.3333 0.3333 0 0 0.3333 0.3333 0.3333 0 0 0 0 0 1 0"></feColorMatrix></filter><defs><style type="text/css">@import url('https://fonts.googleapis.com/css?family=Open+Sans:400,700|Inconsolata:400');</style></defs><g><g pointer-events="auto"></g><g pointer-events="auto"></g><g pointer-events="auto"><g opacity="1"><g id="44733abb-f401-432a-84e0-19db7d64daae"><g><g><polygon points="630 675, 630 495, 450 495, 450 675" stroke="#795548" stroke-width="8" fill="none"></polygon></g><g><polygon points="450 495, 405 495, 405 585, 450 630" stroke="#795548" stroke-width="8" fill="#795548"></polygon><text font-family="Inconsolata" font-size="20pt" font-weight="bold" fill="#ffffff" transform="translate(437 549) rotate(270)" text-anchor="end">SG</text><g transform="translate(416 506) "><svg width="23" height="32" style="fill: rgb(255, 255, 255);"><svg xmlns="http://www.w3.org/2000/svg" width="23" height="32" viewBox="0 0 23 32"><path d="M19.429 17.143V5.714h-8v20.304c.911-.482 2.375-1.321 3.804-2.446 1.911-1.5 4.196-3.839 4.196-6.429zm3.428-13.714v13.714c0 7.518-10.518 12.268-10.964 12.464a1.049 1.049 0 0 1-.928 0C10.519 29.411.001 24.661.001 17.143V3.429c0-.625.518-1.143 1.143-1.143h20.571c.625 0 1.143.518 1.143 1.143z"></path></svg></svg></g></g></g></g></g></g><g></g><g pointer-events="auto"><g opacity="1"><g id="6b828916-9f53-4104-b67f-b6a623c57deb"><g><g><polygon points="675 765, 720 720, 720 450, 675 405, 315 405, 315 720, 360 765" stroke="#00bcd4" stroke-width="8" fill="none"></polygon></g><g><polygon points="315 405, 270 405, 270 675, 315 720" stroke="#00bcd4" stroke-width="8" fill="#00bcd4"></polygon><text font-family="Inconsolata" font-size="20pt" font-weight="bold" fill="#ffffff" transform="translate(302 448) rotate(270)" text-anchor="end">VPC</text><g transform="translate(276 411) "><svg width="34" height="32" style="fill: rgb(255, 255, 255);"><svg xmlns="http://www.w3.org/2000/svg" width="34" height="32" viewBox="0 0 34 32"><path d="M34.286 20.571a6.858 6.858 0 0 1-6.857 6.857H8c-4.411 0-8-3.589-8-8a7.993 7.993 0 0 1 4.607-7.232c-.018-.25-.036-.518-.036-.768a9.137 9.137 0 0 1 9.143-9.143c3.821 0 7.089 2.339 8.464 5.679a4.439 4.439 0 0 1 2.964-1.107 4.58 4.58 0 0 1 4.571 4.571 4.49 4.49 0 0 1-.732 2.464c3.036.714 5.304 3.429 5.304 6.679z"></path></svg></svg></g></g></g></g></g></g><g></g><g pointer-events="auto"><g opacity="1"><g id="95c0ffaf-fc1b-4d5d-a447-94e002b6d281"><g><g><polygon points="630 720, 675 675, 675 495, 630 450, 405 450, 405 675, 450 720" stroke="#2196f3" stroke-width="8" stroke-dasharray="16" fill="none"></polygon></g><g><polygon points="405 450, 360 450, 360 630, 405 675" stroke="#2196f3" stroke-width="8" fill="#2196f3"></polygon><text font-family="Inconsolata" font-size="20pt" font-weight="bold" fill="#ffffff" transform="translate(392 506) rotate(270)" text-anchor="end">Public</text><g transform="translate(372 462) "><svg width="21" height="32" style="fill: rgb(255, 255, 255);"><svg xmlns="http://www.w3.org/2000/svg" width="21" height="32" viewBox="0 0 21 32"><path d="M5.714 13.714h9.143v-3.429c0-2.518-2.054-4.571-4.571-4.571s-4.571 2.054-4.571 4.571v3.429zm14.857 1.715v10.286c0 .946-.768 1.714-1.714 1.714H1.714A1.715 1.715 0 0 1 0 25.715V15.429c0-.946.768-1.714 1.714-1.714h.571v-3.429c0-4.393 3.607-8 8-8s8 3.607 8 8v3.429h.571c.946 0 1.714.768 1.714 1.714z"></path></svg></svg></g></g></g></g></g></g><g pointer-events="auto"></g><g pointer-events="none"></g><g pointer-events="auto"><g id="58205333-0d59-4c2f-bd4c-5845c255fc3a-7807226b-844c-45ce-8175-d3412d0c0aa0"><g cursor="cell"><line x1="624" y1="372" x2="546" y2="528" stroke="red" stroke-width="8" opacity="0"></line><line x1="624" y1="372" x2="546" y2="528" stroke="#000000" stroke-width="2" stroke-linecap="round"></line><polygon points="630 360, 609 377, 622 376, 629 387, 630 360" stroke-linejoin="round" fill="#000000" stroke="#000000" stroke-width="1"></polygon><polygon points="540 540, 561 523, 548 524, 541 513, 540 540" stroke-linejoin="round" fill="#000000" stroke="#000000" stroke-width="1"></polygon></g></g><g id="7807226b-844c-45ce-8175-d3412d0c0aa0-79c94b30-75c5-4f76-bbb7-bb4d2b2b0b5c"><g cursor="cell"><line x1="540" y1="644" x2="540" y2="878" stroke="red" stroke-width="8" opacity="0"></line><line x1="540" y1="644" x2="540" y2="878" stroke="#000000" stroke-width="2" stroke-linecap="round"></line><polygon points="540 630, 529 654, 540 648, 551 654, 540 630" stroke-linejoin="round" fill="#000000" stroke="#000000" stroke-width="1"></polygon></g></g><g id="26f97d61-0ec5-4556-9399-d00cbe6171c1-6f4e653c-1573-488e-b8a7-803013ddec0f"><g cursor="cell"><line x1="450" y1="113" x2="572" y2="113" stroke="red" stroke-width="8" opacity="0"></line><line x1="450" y1="113" x2="572" y2="113" stroke="#000000" stroke-width="2" stroke-linecap="round"></line><polygon points="585 113, 561 101, 567 113, 561 124, 585 113" stroke-linejoin="round" fill="#000000" stroke="#000000" stroke-width="1"></polygon></g></g><g id="db41d375-0323-4b3c-ac24-f97e3b7e0ac1-26f97d61-0ec5-4556-9399-d00cbe6171c1"><g cursor="cell"><line x1="405" y1="257" x2="405" y2="171" stroke="red" stroke-width="8" opacity="0"></line><line x1="405" y1="257" x2="405" y2="171" stroke="#000000" stroke-width="2" stroke-linecap="round"></line><polygon points="405 270, 416 246, 405 252, 394 246, 405 270" stroke-linejoin="round" fill="#000000" stroke="#000000" stroke-width="1"></polygon><polygon points="405 158, 394 182, 405 175, 416 182, 405 158" stroke-linejoin="round" fill="#000000" stroke="#000000" stroke-width="1"></polygon></g></g><g id="6f4e653c-1573-488e-b8a7-803013ddec0f-26f97d61-0ec5-4556-9399-d00cbe6171c1"><g cursor="cell"><line x1="585" y1="113" x2="464" y2="113" stroke="red" stroke-width="8" opacity="0"></line><line x1="585" y1="113" x2="464" y2="113" stroke="#000000" stroke-width="2" stroke-linecap="round"></line><polygon points="450 113, 474 124, 468 113, 474 101, 450 113" stroke-linejoin="round" fill="#000000" stroke="#000000" stroke-width="1"></polygon></g></g><g id="db41d375-0323-4b3c-ac24-f97e3b7e0ac1-7807226b-844c-45ce-8175-d3412d0c0aa0"><g cursor="cell"><line x1="413" y1="371" x2="532" y2="529" stroke="red" stroke-width="8" opacity="0"></line><line x1="413" y1="371" x2="532" y2="529" stroke="#000000" stroke-width="2" stroke-linecap="round"></line><polygon points="405 360, 411 386, 416 374, 429 373, 405 360" stroke-linejoin="round" fill="#000000" stroke="#000000" stroke-width="1"></polygon><polygon points="540 540, 534 514, 529 526, 516 527, 540 540" stroke-linejoin="round" fill="#000000" stroke="#000000" stroke-width="1"></polygon></g></g></g><g pointer-events="auto"><g opacity="1"><g id="26f97d61-0ec5-4556-9399-d00cbe6171c1" transform="translate(0 0)"><svg x="360" y="68" height="90" id="svg15" width="90" version="1.1"><defs id="defs4"></defs><g id="Reference" fill-opacity="1" transform="scale(1.2)"><path id="Orange_Light_BG" d="M0 0h75v75H0z" fill="#d86613" data-name="Orange Light BG"></path><g id="Product_Icon" fill="#ffffff" data-name="Product Icon"><path class="cls-2" id="path9" d="M60.5 62.5H48.18a1 1 0 0 1-.9-.57L29.86 25.5h-7.37a1 1 0 0 1-1-1v-11a1 1 0 0 1 1-1h15.4a1 1 0 0 1 .9.57L56.13 49.5h4.37a1 1 0 0 1 1 1v11a1 1 0 0 1-1 1zm-11.69-2H59.5v-9h-4a1 1 0 0 1-.9-.57L37.26 14.5H23.5v9h7a1 1 0 0 1 .9.57z" fill="#ffffff" fill-opacity="1"></path><path class="cls-2" id="path11" d="M27.48 62.5h-13a1 1 0 0 1-.85-.47 1 1 0 0 1-.05-1l13.6-28.41a1 1 0 0 1 .9-.57 1 1 0 0 1 .9.56L35.49 46a1 1 0 0 1 0 .87l-7.1 15a1 1 0 0 1-.91.63zm-11.4-2h10.77l6.63-14-5.39-11.15z" fill="#ffffff" fill-opacity="1"></path></g></g></svg></g></g><g opacity="1"><g id="6f4e653c-1573-488e-b8a7-803013ddec0f" transform="translate(0 0)"><svg x="585" y="68" height="90" id="svg21" width="90" version="1.1"><defs id="defs4"></defs><g id="Reference" fill-opacity="1" transform="scale(1.2)"><path id="Blue_Light_BG" d="M0 0h75v75H0z" fill="#3b48cc" data-name="Blue Light BG"></path><g id="Product_Icon" fill="#ffffff" data-name="Product Icon"><path class="cls-2" id="path9" d="M50.25 40.48l-6.61 6.6a16.23 16.23 0 0 0 3.42-1.39 2.58 2.58 0 0 1 1.19 1.8c0 1.83-3.88 3.82-9.64 4.63a42.23 42.23 0 0 1-5.36.38h-1c-8.08-.19-14-2.74-14-5a2.58 2.58 0 0 1 1.19-1.8c3.14 1.75 8.23 2.79 13.81 2.79h.11l.56-2h-.67c-5.5 0-10.6-1.09-13.31-2.81-1.08-.71-1.68-1.48-1.69-2.15V36.9c3.06 2.34 9.16 3.56 15 3.56.79 0 1.58 0 2.35-.07l.57-2c-1 .07-1.93.1-2.92.1-8.58 0-15-2.63-15-5a2.58 2.58 0 0 1 1.19-1.8c2.76 1.55 7 2.52 11.81 2.74l.05-2c-4.73-.23-9-1.25-11.36-2.76-1.07-.69-1.67-1.47-1.69-2.15V22.9c3.06 2.34 9.16 3.56 15 3.56h.22l1.06-2h-1.28c-8.58 0-15-2.63-15-5s6.42-5 15-5a36 36 0 0 1 8.58 1h5.49c-3-1.83-8.18-3-14.07-3-8.24 0-17 2.44-17 7v8.05a4.06 4.06 0 0 0 1.51 2.95 4.07 4.07 0 0 0-1.51 3v8a4.06 4.06 0 0 0 1.51 3 4.07 4.07 0 0 0-1.51 3v8a1.25 1.25 0 0 0 0 .21c.27 4.39 8.87 6.75 17 6.75s16.73-2.36 17-6.77a.75.75 0 0 0 0-.21v-8a4 4 0 0 0-1.51-3 4.06 4.06 0 0 0 1.51-3zm-2 15c0 2.36-6.42 5-15 5s-15-2.61-15-5v-4.6c3.06 2.32 9.16 3.54 15 3.54s11.94-1.22 15-3.54z" fill="#ffffff" fill-opacity="1"></path><circle class="cls-2" id="circle11" cx="21.25" cy="27.52" fill="#ffffff" fill-opacity="1" r="1.25"></circle><circle class="cls-2" id="circle13" cx="21.25" cy="41.52" fill="#ffffff" fill-opacity="1" r="1.25"></circle><circle class="cls-2" id="circle15" cx="21.25" cy="55.52" fill="#ffffff" fill-opacity="1" r="1.25"></circle><path class="cls-2" id="path17" d="M35.75 51.48a1 1 0 0 1-.5-.14 1 1 0 0 1-.46-1.15l5.62-18.71h-5.66a1 1 0 0 1-.89-1.48l6-12a1 1 0 0 1 .89-.55h13a1 1 0 0 1 1 1.31l-2.56 7.69h5.61a1 1 0 0 1 .72 1.69l-22 23a1 1 0 0 1-.77.34zm.62-22h5.38a1 1 0 0 1 .8.4 1 1 0 0 1 .16.88l-4.81 16 17.51-18.3h-4.66a1 1 0 0 1-1-1.32l2.56-7.68h-11z" fill="#ffffff" fill-opacity="1"></path></g></g></svg></g></g><g opacity="1"><g id="db41d375-0323-4b3c-ac24-f97e3b7e0ac1" transform="translate(0 0)"><svg x="360" y="270" height="90" id="svg25" width="90" version="1.1"><defs id="defs4"></defs><g id="Reference" fill-opacity="1" transform="scale(1.2)"><path id="Purple_Light_BG" d="M0 0h75v75H0z" fill="#693cc5" data-name="Purple Light BG"></path><g id="Product_Icon" fill="#ffffff" data-name="Product Icon"><path class="cls-2" id="path9" d="M48.51 61.5a1 1 0 0 1-.59-.19 1 1 0 0 1-.42-.81v-46a1 1 0 0 1 .48-.85 1 1 0 0 1 1-.05l13 6.35a1 1 0 0 1 .56.89v35.34a1 1 0 0 1-.69 1l-13 4.32a1.19 1.19 0 0 1-.34 0zm1-45.39v43l11-3.65v-34z" fill="#ffffff" fill-opacity="1"></path><path class="cls-2" id="path11" d="M26.5 61.5a1.19 1.19 0 0 1-.32 0l-13-4.32a1 1 0 0 1-.68-1V20.84a1 1 0 0 1 .56-.89l13-6.35a1 1 0 0 1 1 .05 1 1 0 0 1 .47.85v46a1 1 0 0 1-.42.81.94.94 0 0 1-.61.19zm-12-6 11 3.65v-43l-11 5.37z" fill="#ffffff" fill-opacity="1"></path><path class="cls-2" id="path13" d="M47.5 27.5h-3v-2h3zm-6 0h-3v-2h3zm-6 0h-3v-2h3zm-6 0h-3v-2h3z" fill="#ffffff" fill-opacity="1"></path><path class="cls-2" id="path15" d="M47.5 49.5h-3v-2h3zm-6 0h-3v-2h3zm-6 0h-3v-2h3zm-6 0h-3v-2h3z" fill="#ffffff" fill-opacity="1"></path><path class="cls-2" id="path17" d="m33.11 40.94-3.76-3.21a1 1 0 0 1 0-1.52L33.1 33l1.3 1.52L31.54 37l2.86 2.45z" fill="#ffffff" fill-opacity="1"></path><path class="cls-2" id="path19" d="m41.9 40.94-1.3-1.52L43.46 37l-2.87-2.44 1.3-1.56 3.76 3.2a1 1 0 0 1 0 1.52z" fill="#ffffff" fill-opacity="1"></path><path class="cls-2" id="rect21" d="M31.29 36.5H43.7v2H31.29z" fill="#ffffff" fill-opacity="1" transform="rotate(-71.32 37.488 37.496)"></path></g></g></svg></g></g><g opacity="1"><g id="7807226b-844c-45ce-8175-d3412d0c0aa0" transform="translate(0 0)"><svg x="495" y="540" height="90" id="svg51" width="90" version="1.1"><defs id="defs4"></defs><g id="Working" transform="translate(0 40)"><g id="g883" transform="matrix(1.83333 0 0 1.83333 -.833 -40.833)"><path class="cls-1" id="path8" d="M44.31 44.31H5.69V5.69h38.62zm-36.62-2h34.62V7.69H7.69z" fill="#d86613" fill-opacity="1"></path><path class="cls-1" id="rect10" d="M11.21 1h2v5.69h-2z" fill="#d86613" fill-opacity="1"></path><path class="cls-1" id="rect12" d="M17.48 1h2v5.69h-2z" fill="#d86613" fill-opacity="1"></path><path class="cls-1" id="rect14" d="M23.76 1h2v5.69h-2z" fill="#d86613" fill-opacity="1"></path><path class="cls-1" id="rect16" d="M30.04 1h2v5.69h-2z" fill="#d86613" fill-opacity="1"></path><path class="cls-1" id="rect18" d="M36.32 1h2v5.69h-2z" fill="#d86613" fill-opacity="1"></path><path class="cls-1" id="rect20" d="M11.21 43.31h2V49h-2z" fill="#d86613" fill-opacity="1"></path><path class="cls-1" id="rect22" d="M17.48 43.31h2V49h-2z" fill="#d86613" fill-opacity="1"></path><path class="cls-1" id="rect24" d="M23.76 43.31h2V49h-2z" fill="#d86613" fill-opacity="1"></path><path class="cls-1" id="rect26" d="M30.04 43.31h2V49h-2z" fill="#d86613" fill-opacity="1"></path><path class="cls-1" id="rect28" d="M36.32 43.31h2V49h-2z" fill="#d86613" fill-opacity="1"></path><path class="cls-1" id="rect30" d="M43.31 11.45H49v2h-5.69z" fill="#d86613" fill-opacity="1"></path><path class="cls-1" id="rect32" d="M43.31 17.72H49v2h-5.69z" fill="#d86613" fill-opacity="1"></path><path class="cls-1" id="rect34" d="M43.31 24H49v2h-5.69z" fill="#d86613" fill-opacity="1"></path><path class="cls-1" id="rect36" d="M43.31 30.28H49v2h-5.69z" fill="#d86613" fill-opacity="1"></path><path class="cls-1" id="rect38" d="M43.31 36.55H49v2h-5.69z" fill="#d86613" fill-opacity="1"></path><path class="cls-1" id="rect40" d="M1 11.45h5.69v2H1z" fill="#d86613" fill-opacity="1"></path><path class="cls-1" id="rect42" d="M1 17.72h5.69v2H1z" fill="#d86613" fill-opacity="1"></path><path class="cls-1" id="rect44" d="M1 24h5.69v2H1z" fill="#d86613" fill-opacity="1"></path><path class="cls-1" id="rect46" d="M1 30.28h5.69v2H1z" fill="#d86613" fill-opacity="1"></path><path class="cls-1" id="rect48" d="M1 36.55h5.69v2H1z" fill="#d86613" fill-opacity="1"></path><path id="rect836" d="M7.69 7.69h34.62v34.62H7.69z" fill="#d86613" fill-opacity="1" opacity=".05" stroke="#d86613" stroke-opacity="0" stroke-width=".545"></path></g></g></svg><svg x="513" y="567" width="54" height="36" style="overflow: visible; cursor: default;"><text transform="" font-family="Open Sans" text-anchor="middle" x="50%" font-weight="bold" font-size="18pt" y="75%" fill="#d86613"><tspan>T2</tspan></text></svg></g></g></g><g pointer-events="auto"></g><g pointer-events="auto"><g opacity="1"><g id="79c94b30-75c5-4f76-bbb7-bb4d2b2b0b5c" transform="translate(0 0)"><svg x="540" y="878" overflow="visible"><g transform="scale(1.5093458848123582) "><circle cx="0" cy="0" fill="transparent" r="25"></circle><svg width="50" height="50" x="-25" y="-25" style="fill: rgb(255, 255, 255);"><svg xmlns="http://www.w3.org/2000/svg" viewBox="0 0 50 50"><g id="Working"><path d="M45.48 34.91h-41a3 3 0 0 1-3-3V5a3 3 0 0 1 3-3h41a3 3 0 0 1 3 3v26.89a3 3 0 0 1-3 3.02zM4.52 4a1 1 0 0 0-1 1v26.89a1 1 0 0 0 1 1h41a1 1 0 0 0 1-1V5a1 1 0 0 0-1-1zM45 48H5a3.53 3.53 0 0 1-3.5-3.49v-4.33A3.53 3.53 0 0 1 5 36.66h40a3.53 3.53 0 0 1 3.52 3.52v4.33A3.53 3.53 0 0 1 45 48zM5 38.66a1.52 1.52 0 0 0-1.5 1.52v4.33A1.52 1.52 0 0 0 5 46h40a1.52 1.52 0 0 0 1.52-1.52v-4.3A1.52 1.52 0 0 0 45 38.66z" style="fill:#232f3e"></path><path d="M43.75 31.16H6.25a1 1 0 0 1-1-1V6.72a1 1 0 0 1 1-1h37.5a1 1 0 0 1 1 1v23.44a1 1 0 0 1-1 1zm-36.5-2h35.5V7.72H7.25z" style="fill:#232f3e"></path><rect x="31.5" y="40.41" width="13.25" height="3.88" rx="1" style="fill:#232f3e"></rect></g></svg></svg></g></svg></g></g><g opacity="1"><g id="58205333-0d59-4c2f-bd4c-5845c255fc3a" transform="translate(0 0)"><svg x="630" y="315" overflow="visible"><g transform="scale(1.2074767078498865) "><circle cx="0" cy="0" fill="transparent" r="37.5"></circle><svg width="75" height="75" x="-37.5" y="-37.5" style="fill: rgb(255, 255, 255);"><svg xmlns="http://www.w3.org/2000/svg" viewBox="0 0 75 75"><defs><linearGradient id="RedGradient" x1="1002.53" y1="-41.53" x2="896.46" y2="64.54" gradientTransform="rotate(180 493.5 24.5)" gradientUnits="userSpaceOnUse"><stop offset="0" stop-color="#bd0816"></stop><stop offset="1" stop-color="#ff5252"></stop></linearGradient></defs><g id="Reference"><path id="Red_Gradient" data-name="Red Gradient" style="fill:url(#RedGradient)" d="M0 0h75v75H0z"></path><g id="Icon_Test" data-name="Icon Test"><path d="M55 15H16.46a3.92 3.92 0 0 0-3.71 4.1v24.8a3.92 3.92 0 0 0 3.71 4.1h21.29v-2H16.46a2 2 0 0 1-1.71-2.1V27h18v15a1 1 0 0 0 1 1h8v-2H35.2v-.3a7.74 7.74 0 0 1 5.53-7.43 5.91 5.91 0 0 0 4.92 0 7.82 7.82 0 0 1 4.42 3.42l1.7-1a9.8 9.8 0 0 0-4.34-3.82 5.4 5.4 0 0 0 1.27-3.48 5.5 5.5 0 0 0-11 0A5.42 5.42 0 0 0 39 31.8a9.67 9.67 0 0 0-4.22 3.62V22h17v14h2v-9h3v10h2V19.1A3.92 3.92 0 0 0 55 15zm-11.8 9.87a3.48 3.48 0 0 1 3.5 3.46 3.43 3.43 0 0 1-1.81 3 3.57 3.57 0 0 1-3.39 0 3.44 3.44 0 0 1-1.8-3 3.48 3.48 0 0 1 3.5-3.46zm10.55.13v-4a1 1 0 0 0-1-1h-19a1 1 0 0 0-1 1v4h-18v-5.9a2 2 0 0 1 1.71-2.1H55a2 2 0 0 1 1.73 2.1V25z" style="fill:#fff"></path><path style="fill:#fff" d="M16.77 31.95h10.98v2H16.77zM16.77 36.95h6.98v2h-6.98zM25.77 36.95h2.98v2h-2.98zM51.78 35.65zM52.14 60.05a10.11 10.11 0 1 1 1.22-20.14 10.12 10.12 0 0 1 6.46 16.61 10.47 10.47 0 0 1-3.37 2.57 10.19 10.19 0 0 1-4.31.96zm0-18.22a8 8 0 0 0-3.69.9 8.11 8.11 0 0 0 7.16 14.55 8.2 8.2 0 0 0 2.71-2.07 8.11 8.11 0 0 0-5.19-13.32 8.22 8.22 0 0 0-1.01-.06z"></path><path d="M50.55 54.2a1 1 0 0 1-.71-.29l-3.23-3.23L48 49.27l2.52 2.52 5.7-5.71 1.42 1.42-6.42 6.41a1 1 0 0 1-.67.29zM51.78 35.65z" style="fill:#fff"></path></g></g></svg></svg></g></svg></g></g></g><g pointer-events="auto"><g opacity="1"><g id="16cb4477-69fc-43f2-99e4-7b351166999b"><svg x="450" y="923" overflow="visible"><text stroke="#ffffff" stroke-width="0" font-family="Open Sans" y="36.5" font-size="25pt" fill="#f5b720" font-weight="bold" transform="" xml:space="preserve"><tspan x="8" dy="0">Client/User</tspan></text><text font-family="Open Sans" y="36.5" font-size="25pt" fill="#f5b720" font-weight="bold" transform="" xml:space="preserve"><tspan x="8" dy="0">Client/User</tspan></text></svg></g></g><g opacity="1"><g id="59d3b1d0-b50b-4581-af43-18d0ced2698c"><svg x="563" y="225" overflow="visible"><text stroke="#ffffff" stroke-width="0" font-family="Open Sans" y="30.799999999999997" font-size="20pt" fill="#f5b720" font-weight="bold" transform="" xml:space="preserve"><tspan x="8" dy="0">Cognito</tspan></text><text font-family="Open Sans" y="30.799999999999997" font-size="20pt" fill="#f5b720" font-weight="bold" transform="" xml:space="preserve"><tspan x="8" dy="0">Cognito</tspan></text></svg></g></g><g opacity="1"><g id="84696c50-3b4d-47ca-806e-13901c2fad79"><svg x="180" y="293" overflow="visible"><text stroke="#ffffff" stroke-width="0" font-family="Open Sans" y="30.799999999999997" font-size="20pt" fill="#f5b720" font-weight="bold" transform="" xml:space="preserve"><tspan x="8" dy="0">API Gateway</tspan></text><text font-family="Open Sans" y="30.799999999999997" font-size="20pt" fill="#f5b720" font-weight="bold" transform="" xml:space="preserve"><tspan x="8" dy="0">API Gateway</tspan></text></svg></g></g><g opacity="1"><g id="168a8190-864c-43a2-beac-b73a51bc1e58"><svg x="563" y="23" overflow="visible"><text stroke="#ffffff" stroke-width="0" font-family="Open Sans" y="30.799999999999997" font-size="20pt" fill="#f5b720" font-weight="bold" transform="" xml:space="preserve"><tspan x="8" dy="0">DynamoDB</tspan></text><text font-family="Open Sans" y="30.799999999999997" font-size="20pt" fill="#f5b720" font-weight="bold" transform="" xml:space="preserve"><tspan x="8" dy="0">DynamoDB</tspan></text></svg></g></g><g opacity="1"><g id="24f946a0-8b7c-42fb-9a22-d50c99a874a4"><svg x="338" y="23" overflow="visible"><text stroke="#ffffff" stroke-width="0" font-family="Open Sans" y="30.799999999999997" font-size="20pt" fill="#f5b720" font-weight="bold" transform="" xml:space="preserve"><tspan x="8" dy="0">Lambda</tspan></text><text font-family="Open Sans" y="30.799999999999997" font-size="20pt" fill="#f5b720" font-weight="bold" transform="" xml:space="preserve"><tspan x="8" dy="0">Lambda</tspan></text></svg></g></g></g><g pointer-events="auto"><g></g><g></g><g></g><g></g><g></g><g></g><g></g><g></g><g></g><g></g></g></g></svg>